<?xml version="1.0" encoding="UTF-8"?>
<svg version="1.1" xmlns="http://www.w3.org/2000/svg" width="1028" height="1028" viewBox="0 0 1028 1028">
<path d="M0 0 C3.71702757 2.31175694 7.52496043 4.38743504 11.37426758 6.46899414 C16.34982505 9.16819015 21.28476954 11.93969138 26.22265625 14.70703125 C27.31344482 15.31820801 28.4042334 15.92938477 29.52807617 16.55908203 C39.83471002 22.34207795 50.09558993 28.2030312 60.34765625 34.08203125 C65.07581673 36.79212499 69.8048965 39.50060335 74.53515625 42.20703125 C75.13724915 42.55161377 75.73934204 42.89619629 76.35968018 43.2512207 C84.27216631 47.77782314 92.212867 52.2479317 100.19628906 56.64819336 C104.9428847 59.27423914 109.62370609 61.99558079 114.28515625 64.76953125 C121.57841581 69.10732962 128.98203116 73.23019806 136.41015625 77.33203125 C145.55155081 82.39254961 154.66939307 87.48996735 163.72265625 92.70703125 C164.22156372 92.99078613 164.22156372 92.99078613 166.74633789 94.42675781 C174.16298401 98.73033127 179.67287106 102.57594426 182.34765625 111.08203125 C182.62295532 113.92772074 182.75825128 116.54797895 182.7353363 119.38682556 C182.73802907 119.79126547 182.73802907 119.79126547 182.75165612 121.83797652 C182.76590279 124.53398722 182.7588402 127.22950464 182.75170898 129.92553711 C182.75741426 131.86430759 182.76437914 133.80307471 182.77250671 135.74183655 C182.79043548 140.99803842 182.78927027 146.25407333 182.78356433 151.51029658 C182.78047216 155.90148098 182.78656523 160.29263332 182.79260308 164.68381315 C182.8066457 175.04436289 182.8050891 185.40483017 182.79370117 195.76538086 C182.78221923 206.44740259 182.7962976 217.12917328 182.82309765 227.81116194 C182.84526097 236.98928943 182.85189061 246.16733816 182.84602123 255.34549052 C182.84265211 260.82417314 182.84506398 266.30269483 182.86227226 271.7813549 C182.87774936 276.93361126 182.87377718 282.08549594 182.85496712 287.23773766 C182.85128342 289.12591227 182.85438329 291.01411446 182.86485291 292.90226364 C182.87807971 295.48535339 182.86650095 298.06721566 182.84886169 300.6502533 C182.8584667 301.39258349 182.86807171 302.13491368 182.87796777 302.89973873 C182.78427156 309.59521901 180.53986252 314.80255562 175.89453125 319.6328125 C170.84711293 323.41837624 165.127772 326.26357389 159.59765625 329.26953125 C158.37658311 329.93975601 157.15588308 330.61066095 155.93554688 331.28222656 C153.51539828 332.61304292 151.09357789 333.94071884 148.66992188 335.26513672 C144.38805897 337.60681983 140.11505784 339.96411415 135.84765625 342.33203125 C135.13625488 342.72656494 134.42485352 343.12109863 133.69189453 343.52758789 C127.80375694 346.80454064 121.97089936 350.17311777 116.14550781 353.56005859 C97.56153399 364.36026676 78.85498882 374.95066782 60.13330078 385.50976562 C57.31682424 387.09943337 54.50192011 388.69185083 51.6875 390.28515625 C40.55248069 396.58801534 29.40447315 402.86698622 18.23364258 409.10620117 C13.62012634 411.68368843 9.01094076 414.26686758 4.42578125 416.89453125 C3.69480225 417.31186523 2.96382324 417.72919922 2.21069336 418.15917969 C0.90162818 418.90792943 -0.4051071 419.66077748 -1.70874023 420.41894531 C-8.23984708 424.14680892 -14.13132828 426.12323221 -21.65234375 425.08203125 C-24.71174741 424.04032162 -27.41578233 422.56076829 -30.21484375 420.95703125 C-31.0258252 420.51182129 -31.83680664 420.06661133 -32.67236328 419.60791016 C-40.20290038 415.43660415 -47.61966685 411.05647632 -55.03442383 406.68359375 C-64.18636694 401.30001285 -73.46762473 396.17284266 -82.80224609 391.11474609 C-85.05180639 389.88762502 -87.28251435 388.62523966 -89.49188232 387.32714844 C-92.4795212 385.62760014 -95.47345288 384.35236536 -98.68405151 383.13101196 C-104.47764325 380.68480763 -109.64140015 378.04546244 -113.65234375 373.08203125 C-117.0383101 364.15194909 -116.09444258 353.94238757 -115.74608564 344.53467369 C-115.62754934 340.76823265 -115.62255969 337.00154026 -115.60440063 333.23352051 C-115.55860743 326.9169941 -115.44117829 320.6053702 -115.27099609 314.29101562 C-115.03107423 305.38766727 -114.91657991 296.48599787 -114.82926822 287.58001614 C-114.69976234 274.99539435 -114.50864938 262.41153273 -114.19677734 249.83007812 C-114.172547 248.59161133 -114.14831665 247.35314453 -114.12335205 246.07714844 C-114.09169952 244.94466675 -114.060047 243.81218506 -114.0274353 242.64538574 C-114.01536891 242.15356686 -114.01536891 242.15356686 -113.95430565 239.66466522 C-113.63865293 236.96493578 -113.14898486 235.34077352 -111.65234375 233.08203125 C-109.22828283 231.60314537 -106.87972393 230.32701994 -104.33984375 229.08203125 C-102.77960943 228.28706584 -101.22108775 227.48873248 -99.6640625 226.6875 C-99.25309326 226.47633545 -99.25309326 226.47633545 -97.17333984 225.40771484 C-92.93673348 223.17986548 -88.79726208 220.78748192 -84.65234375 218.39453125 C-76.92901993 213.95003751 -69.1798185 209.5561176 -61.40234375 205.20703125 C-60.36787109 204.62727539 -59.33339844 204.04751953 -58.26757812 203.45019531 C-52.79817481 200.38780241 -47.31866469 197.34537416 -41.82421875 194.328125 C-40.70692383 193.71114746 -39.58962891 193.09416992 -38.43847656 192.45849609 C-36.31634147 191.28706491 -34.19090414 190.12158708 -32.06152344 188.96337891 C-15.48716552 179.78995896 -15.48716552 179.78995896 -11.21484375 172.08203125 C-10.98861328 171.69015625 -10.98861328 171.69015625 -9.84375 169.70703125 C-7.11710701 163.69947687 -6.33588037 158.1471672 -6.31640625 151.65625 C-6.30974945 150.86861771 -6.30309265 150.08098541 -6.29623413 149.26948547 C-6.28616221 147.61140254 -6.28141541 145.95327951 -6.28173828 144.29516602 C-6.27737341 141.78657697 -6.24102108 139.27976209 -6.203125 136.77148438 C-6.1421366 128.1761289 -6.2557172 120.74781457 -10.65234375 113.08203125 C-11.13832031 112.22609375 -11.62429688 111.37015625 -12.125 110.48828125 C-19.14395384 102.07243488 -31.75647979 94.81966382 -42.65234375 93.08203125 C-53.17498609 92.38052176 -61.04676637 96.56430215 -69.96484375 101.76953125 C-70.94469238 102.33260986 -71.92454102 102.89568848 -72.93408203 103.47583008 C-75.05401675 104.69435303 -77.17212021 105.91606637 -79.28857422 107.140625 C-82.77880867 109.15502073 -86.2782234 111.15250754 -89.78125 113.14453125 C-99.94664372 118.92881699 -110.10219876 124.72374868 -120.15234375 130.70703125 C-125.76662074 134.04922073 -131.4360868 137.10098335 -137.33203125 139.92578125 C-139.65234375 141.08203125 -139.65234375 141.08203125 -142.65234375 143.08203125 C-143.90054164 147.85501833 -143.8044439 152.71969261 -143.81056213 157.62411499 C-143.81550011 158.47045333 -143.82043809 159.31679166 -143.8255257 160.18877661 C-143.84085042 163.01696244 -143.84924767 165.84512566 -143.85766602 168.67333984 C-143.86724849 170.70375771 -143.87725879 172.73417359 -143.88766479 174.7645874 C-143.91467987 180.27230823 -143.93570784 185.7800376 -143.95566678 191.28778791 C-143.97754728 197.04535951 -144.00492587 202.80290489 -144.03172302 208.56045532 C-144.08162198 219.46127589 -144.1265712 230.36211103 -144.16974539 241.26296008 C-144.21914165 253.67400496 -144.27405093 266.08502354 -144.32942498 278.49604297 C-144.4432021 304.02468117 -144.55005045 329.55334463 -144.65234375 355.08203125 C-146.25926104 354.28165674 -147.86582739 353.48057763 -149.47224426 352.67919922 C-150.3669383 352.23317352 -151.26163233 351.78714783 -152.1834383 351.3276062 C-154.77909132 350.01808648 -157.32548602 348.64609388 -159.8515625 347.20703125 C-160.73956543 346.70308838 -161.62756836 346.19914551 -162.54248047 345.67993164 C-163.46561035 345.15262451 -164.38874023 344.62531738 -165.33984375 344.08203125 C-167.35665616 342.93469423 -169.37358685 341.78756512 -171.390625 340.640625 C-172.41881348 340.05522949 -173.44700195 339.46983398 -174.50634766 338.86669922 C-177.64672143 337.08522069 -180.79456778 335.31775023 -183.9453125 333.5546875 C-184.96471924 332.98298828 -185.98412598 332.41128906 -187.03442383 331.82226562 C-188.97161239 330.7363402 -190.91016581 329.65284449 -192.8503418 328.57226562 C-195.46729042 327.10160722 -198.06449769 325.60325829 -200.65234375 324.08203125 C-201.48411133 323.59847168 -202.31587891 323.11491211 -203.17285156 322.61669922 C-203.96272461 322.12959473 -204.75259766 321.64249023 -205.56640625 321.140625 C-206.25943848 320.71966553 -206.9524707 320.29870605 -207.66650391 319.86499023 C-211.55132636 316.37705584 -213.8188106 312.25292545 -214.15570831 307.06713009 C-214.17748393 305.56956404 -214.17773778 304.07158194 -214.16027832 302.57395935 C-214.1633983 302.158605 -214.1633983 302.158605 -214.1791873 300.05666023 C-214.19507965 297.28674812 -214.18252801 294.51772061 -214.16992188 291.74780273 C-214.17534462 289.75652556 -214.18246814 287.7652524 -214.19116211 285.77398682 C-214.20937893 280.37531002 -214.20233491 274.97693939 -214.18964577 269.57825732 C-214.17951108 263.92627313 -214.18891263 258.27431495 -214.19519043 252.62232971 C-214.20246485 243.13236794 -214.19288382 233.64253074 -214.17382812 224.15258789 C-214.15205358 213.18195666 -214.15911591 202.21162273 -214.18113375 191.24099869 C-214.19928604 181.81915983 -214.20184707 172.39741046 -214.19137907 162.97555977 C-214.18514404 157.3493993 -214.184309 151.72337858 -214.19752502 146.0972271 C-214.20908055 140.80871537 -214.20106297 135.52058702 -214.177948 130.2321167 C-214.17265963 128.29150593 -214.17417686 126.35086289 -214.18299866 124.41026497 C-214.19393249 121.76078113 -214.18021707 119.11252514 -214.16027832 116.46311951 C-214.16920121 115.69550889 -214.17812409 114.92789827 -214.18731737 114.13702673 C-214.1118881 108.96841576 -212.89010143 106.0747039 -209.65234375 102.08203125 C-205.28228349 97.94988258 -200.55694146 95.16370662 -195.27734375 92.33203125 C-193.67168192 91.45478039 -192.06621706 90.57716893 -190.4609375 89.69921875 C-189.65640137 89.2619043 -188.85186523 88.82458984 -188.02294922 88.37402344 C-184.44833386 86.42583966 -180.89073217 84.44808217 -177.33984375 82.45703125 C-176.6842749 82.08956787 -176.02870605 81.72210449 -175.35327148 81.34350586 C-170.03662648 78.3422062 -164.85676828 75.15199654 -159.67578125 71.921875 C-155.94085347 69.64907011 -152.11900425 67.57503325 -148.265625 65.51171875 C-145.68372355 64.09919867 -143.16699656 62.61062335 -140.65234375 61.08203125 C-136.49400301 58.56241358 -132.27254493 56.20303189 -127.99609375 53.890625 C-115.82366994 47.30670885 -103.72850658 40.59490323 -91.72558594 33.70678711 C-85.17595809 29.94818013 -78.60596354 26.22713172 -72.02734375 22.51953125 C-64.93831261 18.52246123 -57.87432579 14.48680401 -50.83984375 10.39453125 C-44.50298216 6.71815846 -38.15728556 3.05822331 -31.77734375 -0.54296875 C-31.03379639 -0.96924561 -30.29024902 -1.39552246 -29.52416992 -1.8347168 C-18.80378614 -7.84303444 -10.2524042 -6.5349857 0 0 Z M-28.52734375 13.01953125 C-30.22599843 14.03609939 -31.92522644 15.05171007 -33.625 16.06640625 C-34.47078613 16.57623047 -35.31657227 17.08605469 -36.18798828 17.61132812 C-39.74253602 19.73264729 -43.34849615 21.75598958 -46.96484375 23.76953125 C-48.28280386 24.50736293 -49.60051659 25.24563672 -50.91796875 25.984375 C-51.23282227 26.160896 -51.23282227 26.160896 -52.82617188 27.05419922 C-56.77615122 29.27738278 -60.70407274 31.53932914 -64.63671875 33.79296875 C-67.765415 35.58102676 -70.90303896 37.35284044 -74.04296875 39.12109375 C-91.52501485 48.96743797 -91.52501485 48.96743797 -100.02734375 54.01953125 C-107.98767576 58.74540149 -116.06298251 63.25773662 -124.14746094 67.76708984 C-130.87864307 71.52324814 -137.58979678 75.3112385 -144.27734375 79.14453125 C-151.55475382 83.31593271 -158.84725145 87.45929478 -166.15234375 91.58203125 C-168.06125266 92.66136152 -169.97010694 93.74078841 -171.87890625 94.8203125 C-175.82831062 97.05355053 -179.78234559 99.27835567 -183.73828125 101.5 C-185.66810508 102.58960232 -187.59779765 103.67943717 -189.52734375 104.76953125 C-190.43162109 105.27484375 -191.33589844 105.78015625 -192.26757812 106.30078125 C-193.09322266 106.76871094 -193.91886719 107.23664063 -194.76953125 107.71875 C-195.49769043 108.12826904 -196.22584961 108.53778809 -196.97607422 108.9597168 C-198.65234375 110.08203125 -198.65234375 110.08203125 -199.65234375 112.08203125 C-199.75874986 114.62736813 -199.80455306 117.14587081 -199.8062439 119.69184875 C-199.81062615 120.48632249 -199.8150084 121.28079622 -199.81952345 122.09934491 C-199.83293723 124.77627459 -199.83909606 127.45317134 -199.84521484 130.13012695 C-199.85311371 132.04346873 -199.86138253 133.95680901 -199.86999512 135.87014771 C-199.89623781 142.16602145 -199.91152394 148.46190193 -199.92578125 154.7578125 C-199.93113981 156.92273653 -199.93651731 159.08766052 -199.9419136 161.25258446 C-199.96354468 170.25563766 -199.9822828 179.25868905 -199.993536 188.26176167 C-200.0097843 201.17746007 -200.04298099 214.09285805 -200.09993684 227.00844318 C-200.13859352 236.08279661 -200.15816356 245.15706955 -200.16345656 254.23150319 C-200.16711557 259.65490736 -200.17919541 265.07799127 -200.2115593 270.50130653 C-200.24156504 275.60261905 -200.24797853 280.70341627 -200.23617554 285.80479813 C-200.23595418 287.67812327 -200.24431035 289.55147181 -200.26182938 291.42471504 C-200.28443566 293.98085557 -200.27626695 296.53511405 -200.26034546 299.09126282 C-200.27422755 299.83406929 -200.28810963 300.57687576 -200.30241239 301.34219152 C-200.24208522 305.26806731 -199.79136891 306.91317648 -197.26215553 309.98506451 C-194.84834584 311.92454485 -192.57734451 313.4712031 -189.84375 314.9140625 C-188.93786133 315.39907227 -188.03197266 315.88408203 -187.09863281 316.38378906 C-186.62280762 316.63306152 -186.62280762 316.63306152 -184.21484375 317.89453125 C-182.24152036 318.94666637 -180.26886421 320.00005388 -178.296875 321.0546875 C-177.33604004 321.56660645 -176.37520508 322.07852539 -175.38525391 322.60595703 C-170.56883372 325.20735746 -165.85386703 327.97778549 -161.13671875 330.75390625 C-158.65234375 332.08203125 -158.65234375 332.08203125 -156.65234375 332.08203125 C-156.6499554 331.07981883 -156.64756704 330.07760641 -156.64510632 329.04502392 C-156.58637041 304.68425943 -156.51052439 280.32359431 -156.41662884 255.96293926 C-156.37162018 244.18241455 -156.33221728 232.40192042 -156.3059082 220.62133789 C-156.28296912 210.35607536 -156.24961712 200.09090917 -156.20364219 189.82572299 C-156.17965468 184.38794279 -156.1609622 178.95025833 -156.15472984 173.51242638 C-156.14870392 168.39805093 -156.1287949 163.28392065 -156.09806824 158.16963577 C-156.08924786 156.2890588 -156.08557364 154.40844984 -156.08733559 152.52785301 C-156.08897794 149.96686493 -156.07237883 147.40663355 -156.05107117 144.8457489 C-156.05591874 144.09575251 -156.06076632 143.34575611 -156.06576079 142.57303256 C-155.9964659 137.55182004 -155.9964659 137.55182004 -154.26401997 135.18671894 C-152.18959175 133.76484816 -150.10353076 132.43006326 -147.93359375 131.15625 C-147.0003125 130.60646484 -146.06703125 130.05667969 -145.10546875 129.49023438 C-144.1309375 128.92240234 -143.15640625 128.35457031 -142.15234375 127.76953125 C-141.20875 127.21330078 -140.26515625 126.65707031 -139.29296875 126.08398438 C-133.7010059 122.80290781 -128.05496628 119.64411232 -122.35351562 116.55786133 C-117.91486596 114.13273143 -113.53604802 111.60469825 -109.15234375 109.08203125 C-103.04017877 105.57596034 -96.92432337 102.09455712 -90.70703125 98.77734375 C-88.03587313 97.29488515 -85.41071721 95.76028274 -82.78515625 94.19921875 C-64.08010705 83.14111004 -64.08010705 83.14111004 -53.65234375 81.08203125 C-52.81058594 80.9015625 -51.96882812 80.72109375 -51.1015625 80.53515625 C-39.29644055 78.65236168 -29.7909938 83.18528837 -19.77734375 88.83203125 C-18.8855542 89.33307373 -17.99376465 89.83411621 -17.07495117 90.3503418 C-10.11732715 94.43718709 -3.74958507 99.18072702 0.09765625 106.45703125 C0.46375 107.12476563 0.82984375 107.7925 1.20703125 108.48046875 C4.4140941 115.79520798 5.80796092 122.17209202 5.78125 130.1640625 C5.78649185 131.09949387 5.7917337 132.03492523 5.7971344 132.998703 C5.80351931 134.96600356 5.80226375 136.93334248 5.79370117 138.90063477 C5.78520765 141.87652163 5.81397613 144.85047471 5.84570312 147.82617188 C5.90372854 163.25293195 4.08286465 176.20656346 -7.22827148 187.68066406 C-12.92840847 193.00267388 -19.37410994 196.54120444 -26.21484375 200.20703125 C-27.41844157 200.8620333 -28.62139381 201.5182229 -29.82373047 202.17553711 C-31.65905684 203.17868062 -33.49474645 204.18107805 -35.33251953 205.17973328 C-41.01816796 208.26961654 -46.65198498 211.44660062 -52.27734375 214.64453125 C-58.2717988 218.04444213 -64.27206913 221.43306711 -70.2890625 224.79296875 C-71.40265137 225.41486084 -72.51624023 226.03675293 -73.66357422 226.67749023 C-75.79334997 227.86586163 -77.92383244 229.05296776 -80.05517578 230.23852539 C-97.59966295 240.02935045 -97.59966295 240.02935045 -99.65234375 242.08203125 C-99.76784539 243.6621074 -99.81417209 245.24728843 -99.8331604 246.83146667 C-99.8475415 247.85911133 -99.86192261 248.88675598 -99.8767395 249.94554138 C-99.88728363 251.08266068 -99.89782776 252.21977997 -99.90869141 253.39135742 C-99.92329407 254.58155487 -99.93789673 255.77175232 -99.95294189 256.99801636 C-100.078981 267.98651503 -100.14910786 278.97583006 -100.20078468 289.96491528 C-100.23968376 298.08917821 -100.30800069 306.21205337 -100.41533244 314.33570689 C-100.48823434 320.0461545 -100.52662709 325.75622312 -100.53981054 331.46711713 C-100.54867161 334.87852545 -100.57287765 338.28821988 -100.63447952 341.69911766 C-100.69503257 345.50913956 -100.69922313 349.31532964 -100.68994141 353.12573242 C-100.70533463 353.68923149 -100.70533463 353.68923149 -100.78323364 356.5408783 C-100.68402522 364.02070165 -100.68402522 364.02070165 -97.71995163 367.06995583 C-95.42254802 368.62720333 -93.15079457 369.87953181 -90.65234375 371.08203125 C-89.31220966 371.84685981 -87.97549186 372.61775449 -86.64453125 373.3984375 C-85.27410472 374.150734 -83.90161895 374.89928864 -82.52734375 375.64453125 C-80.94484643 376.51347466 -79.36283921 377.38331105 -77.78125 378.25390625 C-77.36560791 378.48239258 -77.36560791 378.48239258 -75.26220703 379.63867188 C-70.64512341 382.19210484 -66.05569574 384.79432002 -61.46484375 387.39453125 C-60.5094873 387.93529297 -59.55413086 388.47605469 -58.56982422 389.03320312 C-56.60585197 390.14499672 -54.64198595 391.25697799 -52.67822266 392.36914062 C-49.55981858 394.13440793 -46.44025388 395.89760753 -43.3203125 397.66015625 C-42.28737061 398.24369873 -41.25442871 398.82724121 -40.19018555 399.4284668 C-38.21902582 400.54196689 -36.2478362 401.65541407 -34.27661133 402.76879883 C-33.82813843 403.02222046 -33.82813843 403.02222046 -31.55859375 404.3046875 C-30.7078125 404.77793457 -29.85703125 405.25118164 -28.98046875 405.73876953 C-26.65234375 407.08203125 -26.65234375 407.08203125 -24.76171875 408.37451172 C-20.71213404 411.08777992 -17.78403459 411.61170103 -13.10693359 410.82080078 C-8.15971566 409.33181317 -3.87089609 406.66463073 0.53515625 404.01953125 C1.55327393 403.425354 2.5713916 402.83117676 3.62036133 402.21899414 C5.63716691 401.04136181 7.65055975 399.85786142 9.66015625 398.66796875 C12.92767232 396.73975432 16.22758543 394.87807105 19.53515625 393.01953125 C23.44044427 390.79063652 27.30533579 388.51029863 31.1484375 386.17578125 C39.63232651 381.02306867 48.04272774 376.10753139 56.984375 371.7890625 C62.52705409 368.97587927 67.90990038 365.79781833 73.08901405 362.35750198 C75.34765625 361.08203125 75.34765625 361.08203125 78.31268883 360.12627792 C82.24145393 358.58665753 84.49323864 357.22297913 87.34765625 354.08203125 C89.73008215 346.81825942 88.83719288 338.55923566 88.67822266 331.02832031 C88.67156208 328.63810595 88.67022017 326.24787172 88.67379761 323.85765076 C88.66922774 318.04458645 88.60977274 312.2339476 88.52649565 306.42152128 C88.43272777 299.6534662 88.40878345 292.88570458 88.38953976 286.11709294 C88.35354878 274.04352323 88.26545953 261.97093115 88.14306641 249.89794922 C88.02441421 238.18026058 87.92528702 226.46271951 87.85595703 214.74462891 C87.85167354 214.02232425 87.84739005 213.3000196 87.84297676 212.55582693 C87.79667121 204.67291403 87.75450454 196.78998017 87.71321678 188.90703964 C87.70219059 186.81731951 87.69112757 184.72759958 87.68002041 182.63787988 C87.67271775 181.26057317 87.66547719 179.88326613 87.65829973 178.50595877 C87.61224056 169.73838236 87.548293 160.97119238 87.46523786 152.20388746 C87.41858077 147.18557977 87.3792355 142.16722921 87.34096146 137.14885139 C87.32118036 134.81508907 87.29783733 132.48135392 87.27074432 130.14766502 C87.23411729 126.9720818 87.20957639 123.79662562 87.18789673 120.62091064 C87.18089117 120.15491711 87.18089117 120.15491711 87.14543879 117.79670739 C87.1420205 116.94858601 87.13860221 116.10046463 87.13508034 115.22664261 C87.12781603 114.49339996 87.12055171 113.7601573 87.11306727 113.00469518 C87.34765625 111.08203125 87.34765625 111.08203125 89.34765625 108.08203125 C92.31765625 108.08203125 95.28765625 108.08203125 98.34765625 108.08203125 C98.51265625 147.35203125 98.51265625 147.35203125 99.34765625 346.08203125 C102.56798226 345.27694975 104.50126055 344.59400041 107.3046875 343.03515625 C107.69011719 342.82217896 107.69011719 342.82217896 109.640625 341.74438477 C110.47207031 341.27830811 111.30351563 340.81223145 112.16015625 340.33203125 C113.03671875 339.84468506 113.91328125 339.35733887 114.81640625 338.85522461 C117.66316357 337.26948241 120.50554482 335.67608297 123.34765625 334.08203125 C124.29302246 333.55432129 125.23838867 333.02661133 126.21240234 332.48291016 C136.76323641 326.59177313 147.26289774 320.61574215 157.66015625 314.45703125 C158.50835938 313.96017822 159.3565625 313.4633252 160.23046875 312.95141602 C161.00777344 312.48662842 161.78507812 312.02184082 162.5859375 311.54296875 C162.92645142 311.34082764 162.92645142 311.34082764 164.6496582 310.31787109 C166.34765625 309.08203125 166.34765625 309.08203125 168.34765625 306.08203125 C168.54089707 303.50491754 168.6172545 301.03632847 168.60162354 298.4591217 C168.60474352 297.67533864 168.6078635 296.89155558 168.61107802 296.08402151 C168.61907577 293.44924911 168.61272748 290.81470589 168.60644531 288.17993164 C168.60915441 286.29437627 168.61271488 284.40882195 168.61706543 282.52326965 C168.626202 277.39521682 168.62263979 272.26724424 168.61630726 267.13918996 C168.61125308 261.7785363 168.61593716 256.41788964 168.61907959 251.05723572 C168.62272125 242.05287438 168.61791522 233.04854582 168.60839844 224.04418945 C168.59751681 213.62808099 168.60103655 203.21205083 168.61205125 192.79594427 C168.62112237 183.86085656 168.62241016 174.92579245 168.61717391 165.99070162 C168.61405282 160.65074564 168.61364862 155.3108265 168.62024689 149.97087288 C168.62601704 144.95009757 168.62202947 139.92942335 168.61045837 134.90865898 C168.60780988 133.0639602 168.6085801 131.21925293 168.6129837 129.3745575 C168.61843319 126.86023093 168.61161227 124.34623014 168.60162354 121.83192444 C168.60608498 121.09856009 168.61054642 120.36519574 168.61514306 119.60960823 C168.58690212 115.95500776 168.46887595 113.1333812 166.34765625 110.08203125 C164.15893555 108.53320312 164.15893555 108.53320312 161.421875 107.05078125 C160.91531372 106.77238403 160.91531372 106.77238403 158.35180664 105.36352539 C157.25731201 104.77563232 156.16281738 104.18773926 155.03515625 103.58203125 C152.7352288 102.32112985 150.43575601 101.0593988 148.13671875 99.796875 C146.9859082 99.16894043 145.83509766 98.54100586 144.64941406 97.89404297 C140.0389276 95.36379818 135.47091997 92.76305332 130.91015625 90.14453125 C130.070896 89.66419434 129.23163574 89.18385742 128.36694336 88.68896484 C123.61809861 85.96831445 118.87757887 83.23348362 114.140625 80.4921875 C101.29528874 73.0596355 88.40467868 65.72017991 75.4453125 58.48828125 C61.33789614 50.61562845 47.29282987 42.63282297 33.27172852 34.60766602 C25.73587717 30.2971051 18.18685418 26.0099672 10.61938477 21.75512695 C6.24123496 19.2928162 1.87579037 16.81641557 -2.44921875 14.26171875 C-3.1764917 13.83721436 -3.90376465 13.41270996 -4.65307617 12.9753418 C-5.97719788 12.20093835 -7.29565805 11.41672535 -8.60668945 10.62036133 C-16.67315801 5.93728798 -21.24973771 8.53003659 -28.52734375 13.01953125 Z " fill="#000000" transform="translate(529.65234375,275.91796875)"/>
</svg>
